<svg width="313" height="14" viewBox="0 0 313 14" fill="none" xmlns="http://www.w3.org/2000/svg">
<path d="M77.965 12.8391C82.15 13.7548 90.9704 12.8274 97.3851 13.1061C100.456 13.2397 103.521 13.6804 106.595 13.1922C114.263 11.9742 115.97 8.89165 118.786 8.61007C119.799 13.8334 121.445 13.1209 123.417 13.0792C125.669 12.9812 126.639 10.1956 126.182 8.29573C123.861 6.82891 125.53 9.22226 123.657 11.1962C119.529 11.4093 120.756 7.72328 121.477 6.99079C124.333 4.08527 132.049 2.03598 133.623 7.5114C132.724 7.41334 131.815 7.01781 130.909 7.22065C124.532 11.5985 137.166 17.7526 137.024 6.43301C137.007 5.05166 147.332 17.9479 155.418 11.9347C158.35 9.75472 158.534 15.041 165.723 12.9575C171.294 11.3427 173.824 7.39341 176.29 6.80152C176.563 9.1275 176.391 11.5986 179.569 12.7379C184.663 13.7716 186.859 5.60051 179.548 7.81571C179.325 4.03575 185.14 2.09161 189.575 4.97267C190.579 5.62851 191.861 6.13554 192.307 7.34927C192.949 8.68796 192.5 10.7401 190.965 11.2133C189.785 11.3419 189.68 9.77318 188.957 9.1478C188.406 9.12078 187.621 9.07004 187.375 9.69212C187.312 12.1722 190.153 13.7372 192.33 12.824C195.278 11.5877 193.992 9.01538 194.852 7.92074C195.048 7.67217 200.467 10.534 201.077 10.7745C212.698 15.3512 232.749 13.0016 244.584 8.73882C246.734 7.75849 249.111 7.1973 251.484 7.26821C252.949 7.15035 251.723 10.1488 249.209 9.91183C248.252 9.83407 247.313 9.64481 246.363 9.5569C246.44 9.9693 246.545 10.375 246.674 10.7739C248.121 11.6292 249.956 11.3114 251.504 10.9126C253.056 10.4697 253.58 8.86732 254.354 7.64356C258.49 6.77707 257.786 11.2312 261.558 9.09779C265.678 6.76704 312.097 8.3115 312.435 8.19327C313.467 7.83259 312.778 6.57655 312.734 5.82487C312.754 6.1666 272.593 6.27627 267.086 6.19667C262.792 6.13469 262.72 5.34008 261.084 4.33861C258.247 2.60146 255.923 7.87257 253.671 5.41564C249.731 1.11593 242.086 2.38578 236.928 5.15509C234.882 6.25353 232.669 7.43914 230.284 7.52851C230.401 5.47629 231.314 3.1854 229.238 1.74095C225.921 -0.567054 223.009 3.98306 225.709 6.88258C226.193 7.40246 227.107 7.64369 227.086 8.47167C222.803 13.1824 214.978 9.88897 213.628 7.78185C220.348 8.33791 220.974 0.219726 214.545 1.05529C212.66 1.30043 212.889 2.96128 214.358 2.78828C214.807 2.73546 215.244 2.5528 215.694 2.59473C216.73 2.69144 217.296 4.05201 216.853 4.9937C214.664 9.64945 206.069 1.11459 190.265 0.113966C184.512 -0.250263 185.27 0.270954 181.553 1.48383C174.938 3.49082 166.749 15.0148 159.802 11.0847C159.329 10.7974 159.326 10.1855 159.16 9.7156C159.298 10.1067 163.456 6.8382 163.771 6.45135C165.037 4.89247 166.19 3.55048 168.438 3.69219C166.936 7.91842 169.873 8.23582 171.024 7.68831C174.747 5.91754 172.102 -3.05002 161.263 2.46085C157.351 1.04135 158.873 -0.438063 153.149 2.54204C143.075 -3.41621 139.992 5.05361 143.203 7.34084C144.38 8.17958 146.76 7.8552 146.674 5.46919C146.66 5.08015 146.232 4.25583 146.327 3.93244C146.545 3.20141 148.624 2.71724 150.982 6.57154C152.059 8.33265 153.056 9.19499 155.141 9.43854C155.067 10.0419 155.369 10.7001 151.962 11.4645C147.709 12.4185 144.553 10.0354 141.753 7.81926C130.988 -1.68541 125.596 -1.36337 111.266 3.14688C107.856 4.2205 104.56 5.78244 101.038 6.45355C97.5414 6.97196 96.1301 4.00776 96.7478 3.09883C97.7187 1.67041 100.275 4.40231 100.726 2.76798C101.075 1.50743 98.091 -0.489781 95.6552 1.286C93.8279 2.61833 93.8859 5.204 96.0807 6.6191C98.0327 7.87758 100.187 7.37042 100.027 8.35014C99.9808 8.63257 99.675 8.78173 99.4081 8.88529C96.5479 9.99436 92.4783 12.3 87.6875 7.75495C87.5488 7.00448 88.2318 6.45343 88.4921 5.80775C90.3684 1.92386 86.5742 -0.19989 84.699 0.963343C82.7653 2.49472 82.7586 5.55759 84.415 7.30195C80.0131 8.31333 79.5724 6.55308 72.7448 4.08906C60.947 -0.16859 59.9438 5.08051 59.1585 5.99029C57.404 6.15254 55.5819 5.56089 54.2735 4.37773C53.6751 3.91801 53.0159 3.12011 52.1708 3.49534C51.4811 4.19849 51.0687 5.32761 49.9564 5.45269C45.7325 5.92769 0.854011 5.27492 0.239505 5.90079C-3.89515 10.1182 46.8227 6.89457 50.5615 8.06929C51.9336 8.50016 52.0795 11.635 54.5134 9.30821C55.5716 8.29646 56.8476 8.13067 58.1987 7.68037C58.3435 7.63207 59.9974 9.75521 60.2434 10.0049C64.1319 13.9506 65.8874 10.8985 64.3993 9.87735C64.0142 9.61302 63.5359 9.53623 63.0827 9.42228C62.1013 9.17555 62.008 8.81352 61.8091 7.93052C66.9383 8.12382 69.372 11.1177 77.965 12.8391ZM68.1004 7.78515C66.1059 7.03468 63.9287 6.94005 61.9579 6.132C61.7618 5.24288 62.989 5.16854 63.567 4.86765C67.1369 4.00898 70.5784 5.8311 73.7494 7.24082C76.153 8.13666 78.6107 8.98518 81.1631 9.31995C82.7418 9.30307 84.28 8.70128 85.8757 8.81621C86.8966 9.29965 87.8432 9.92504 88.8641 10.4085C88.8676 10.7837 88.8709 11.1589 88.8709 11.5342C86.4402 11.5916 84.0062 11.5308 81.5789 11.4834C76.9508 10.8344 72.4715 9.39771 68.1004 7.78515ZM99.0633 11.5342C99.1072 11.3449 99.1951 10.9628 99.2357 10.7736C100.578 10.5504 101.886 10.165 103.137 9.63087C108.319 7.70054 113.11 4.81691 118.434 3.26181C121.507 2.13612 124.79 1.49716 128.062 2.00089C129.073 2.23075 130.395 2.13269 130.996 3.15031C129.695 3.20777 128.424 2.88328 127.136 2.81897C124.245 3.13674 121.791 4.80334 119.279 6.115C117.43 6.91278 115.801 8.13324 113.931 8.8837C109.34 11.0745 104.138 12.1292 99.0633 11.5342ZM201.539 9.21847C198.818 8.24829 196.31 6.8014 193.757 5.47616C191.989 4.28958 190.059 3.38359 188.034 2.73106C188.027 2.59583 188.014 2.32196 188.007 2.18673C189.295 1.69987 190.711 1.80808 192.033 2.08868C194.751 2.75123 197.517 3.3666 200.022 4.66469C204.7 6.56457 209.213 8.85998 213.929 10.6687C213.943 10.8918 213.97 11.3381 213.983 11.5612C209.72 11.8722 205.4 11.0406 201.539 9.21847ZM227.147 11.5139C227.198 9.85058 229.041 8.82636 230.568 8.95816C235.656 8.7486 240.159 6.15902 244.929 4.70198C247.008 4.02927 249.402 4.06302 251.288 5.26648C251.065 5.60454 250.937 6.14545 250.446 6.15902C248.749 6.49708 246.995 6.57142 245.345 7.11574C242.036 8.28203 238.756 9.56668 235.305 10.2732C232.658 11.0913 229.886 11.2434 227.147 11.5139ZM258.59 6.33826C259.229 6.2166 260.034 5.696 260.598 6.28422C261.356 6.72364 260.565 7.76827 259.949 7.83589C259.114 7.9068 258.8 6.97037 258.59 6.33826ZM52.9115 7.40991C52.8101 7.33215 52.6039 7.18336 52.5024 7.10902C51.931 5.59109 54.639 5.48974 54.7133 6.82842C54.2502 7.29499 53.5808 7.70396 52.9115 7.40991ZM226.633 5.72974C226.529 5.03002 226.623 4.32344 226.688 3.6236C227.103 3.66419 227.58 3.50867 227.962 3.73853C228.824 4.46197 228.435 5.70602 228.496 6.67962C227.739 6.71349 227.022 6.3923 226.633 5.72974ZM85.3787 6.1117C85.2672 5.14825 85.4193 4.1881 85.6559 3.25509C86.0378 3.27196 86.4199 3.28883 86.8053 3.30913C86.9067 4.37749 86.9135 6.31796 85.3787 6.1117Z" fill="#333333"/>
</svg>
