<svg width="216" height="39" viewBox="0 0 216 39" fill="none" xmlns="http://www.w3.org/2000/svg">
<path d="M216 18.2729C168.854 18.3214 184.959 18.9137 149.179 15.0813C145.41 18.6885 146.236 18.2488 145.581 18.2757C144.648 13.6814 138.187 13.6097 137.326 18.4103C137.236 18.4103 127.006 18.4641 126.935 18.3295C126.307 17.154 124.979 16.49 123.677 16.3914C124.117 15.0274 123.013 13.8161 121.407 14.0852C121.255 14.2288 121.129 17.845 113.143 18.2308C112.829 16.6246 112.443 16.3016 111.976 15.5657C114.857 12.9994 121.3 10.6305 120.788 7.64242C120.528 6.32339 119.307 6.05415 118.688 6.24264C115.745 6.89764 113.753 12.5598 111.429 15.0453C110.657 14.5159 109.814 14.0852 108.89 13.9147C109.06 6.37722 112.91 5.74913 112.999 5.68627C113.268 3.6314 111.537 3.15587 110.63 3.46088C110.666 1.38804 108.593 -0.289925 107.885 0.0420911C106.449 0.526657 105.596 2.04313 105.516 3.50577C104.152 3.00332 102.851 4.25055 103.245 5.71319C103.874 5.92851 104.502 6.18873 104.968 6.67329C106.637 8.36923 107.256 11.5098 107.337 13.9236C106.413 14.0582 105.534 14.4441 104.807 15.0363C103.577 13.9685 102.187 10.8817 100.096 8.18976C97.3232 4.43001 94.066 6.73607 96.0221 9.57166C97.4668 11.6714 102.214 13.6814 104.233 15.6016C103.587 16.3284 103.201 17.2617 103.048 18.2128C99.9972 18.0872 95.4568 17.1271 94.8197 14.1211C92.7648 13.7891 92.2175 15.4312 92.5495 16.4092C91.1946 16.4631 89.8575 17.2258 89.2115 18.4282C78.1924 18.4282 78.9372 18.4372 78.7398 18.3924C78.641 18.0873 78.5962 17.7553 78.4706 17.4592C76.9272 13.5918 71.31 14.193 70.5114 18.1142C70.5204 19.191 67.7208 15.6466 66.8145 15.1082C65.8992 15.18 68.3578 14.9198 36.6735 18.2668C36.18 18.3295 38.4233 18.2937 0.0718874 18.3026L0 18.4283V19.5679C42.5688 19.5499 24.766 18.5988 66.8682 23.0316C68.0257 21.883 69.2013 20.7434 70.3588 19.5859C70.5203 19.5948 70.4844 19.8012 70.5293 19.9089C71.3907 24.1084 77.6451 24.3417 78.668 19.8371C78.668 19.6128 78.0308 19.6846 89.2742 19.6935C90.0998 20.7883 91.2932 21.56 92.5136 21.4792C92.2623 23.2648 93.1776 24.0634 94.7838 23.866C95.5195 20.842 99.9703 19.7653 103.075 19.7563C103.236 20.6626 103.595 21.551 104.206 22.2509C102.716 23.875 96.7219 26.3337 95.6003 29.0166C95.2144 29.878 95.34 31.1881 96.6501 31.5919C99.6472 32.4982 102.438 25.2031 104.753 22.8251C105.498 23.4263 106.377 23.8481 107.328 23.9916C107.292 25.9836 106.745 28.7563 105.731 30.3177C104.627 32.0854 103.568 32.0495 103.227 32.2649C102.895 33.907 104.125 34.9658 105.516 34.5351C105.614 36.1413 106.664 37.8193 108.1 38.0346C109.455 37.8103 110.621 36.0247 110.613 34.5531C111.33 34.7774 112.165 34.5441 112.649 33.9698C113.044 33.4852 113.035 32.8302 113.008 32.238C112.111 31.9598 111.483 31.8163 110.604 30.56C108.845 27.8501 108.961 24.7185 108.818 23.9827C109.751 23.8121 110.666 23.4443 111.375 22.8071C113.206 24.2338 116.077 31.7445 119.092 31.6098C120.851 31.4393 120.95 29.9497 120.725 29.2498C119.837 26.4771 113.663 23.9826 111.985 22.2417C112.542 21.5059 112.955 20.6714 113.098 19.7561C116.176 19.7651 120.797 20.815 121.362 23.8568C123.184 24.153 124.036 22.8608 123.677 21.5059C125.167 21.4341 126.396 20.5727 126.926 19.6665C130.398 19.6844 133.88 19.6575 137.352 19.6844C138.043 23.9557 144.468 24.6555 145.608 19.5319C149.179 22.8699 148.856 23.0763 149.439 22.9956C190.659 18.6566 174.338 19.6133 216 19.5757V18.2729H216ZM109.545 21.2728C108.342 22.0714 106.431 21.7394 105.659 20.2498C104.098 17.0016 108.522 14.6147 110.424 17.513C111.196 18.6706 110.864 20.4293 109.545 21.2728Z" fill="#333333"/>
</svg>
