<svg width="372" height="473" viewBox="0 0 372 473" fill="none" xmlns="http://www.w3.org/2000/svg">
<g clip-path="url(#clip0_35_11)">
<rect width="372" height="473" fill="none"/>
<path d="M189.667 78.3447V30.8447L193.167 35.8447L197.667 39.8447L202.667 43.8447L197.667 51.8447L196.167 56.8447L197.667 65.8447L202.667 68.8447H228.667V60.8447L227.167 56.8447L229.667 52.8447L234.167 50.3447L236.667 57.8447V68.8447H249.167H263.667L267.667 64.3447L268.667 57.8447L266.167 52.8447L262.167 48.3447L270.167 43.8447L275.167 35.8447L277.667 25.3447L280.667 38.8447L279.167 56.8447V78.3447L272.167 81.3447H211.167L189.667 78.3447Z" fill="#AD3A37"/>
<path d="M251.167 236.345L273.167 238.845L271.667 243.845L253.167 246.845L246.667 252.345V261.845V431.345L253.167 436.845L263.667 441.345L276.667 443.345L292.167 441.345L303.167 435.345L317.167 423.345L319.167 405.845V385.845L313.667 374.845L309.167 369.345V364.845H332.667L329.167 424.845L324.167 428.845L317.167 436.845L305.667 448.845L295.667 450.345H278.667L258.667 448.845L237.667 441.345L223.667 431.345L205.167 414.345L196.167 395.345L190.667 371.345V360.845L196.167 357.345L198.167 362.845L205.167 391.345L218.667 411.345H223.667V395.345V279.845L221.167 271.845H218.667L207.167 291.845L198.167 309.345L193.167 304.845V298.845L198.167 291.845L201.667 283.345L205.167 274.845L214.167 263.345L237.667 243.845L251.167 236.345Z" fill="black"/>
<path d="M189.167 6.34473C191.667 12.8447 183.667 16.8447 183.667 19.8447C183.667 22.8447 181.667 37.8447 183.667 41.8447C185.667 45.8447 189.167 51.8447 178.167 66.3447C167.167 80.8447 167.667 98.3447 183.667 111.845C199.667 125.345 207.167 126.845 205.167 138.345C203.167 149.845 185.667 152.345 185.667 163.345C185.667 174.345 199.667 166.345 199.667 177.345C199.667 188.345 180.167 190.345 180.667 213.345C181.167 236.345 189.167 226.845 190.167 237.345C191.167 247.845 183.667 242.845 183.667 253.845C183.667 264.845 199.667 270.845 199.667 281.345C199.667 295.845 189.064 285.39 190.167 298.845C192.667 329.345 197.792 317.345 197.167 332.345C195.917 362.345 177.667 362.345 178.167 377.845C178.667 393.345 184.167 388.845 184.167 396.845C184.167 404.845 180.167 405.345 181.167 412.345C182.167 419.345 192.667 417.845 192.667 423.345C192.667 427.745 191 430.845 190.167 431.845" stroke="#88B556" stroke-width="4"/>
<path d="M187.667 471.845H181.167L175.667 469.845H170.667L167.667 467.845V463.345L165.667 456.845V453.345V446.845L167.667 441.845L170.667 438.845L175.667 437.345L182.167 432.345L187.667 430.845L194.667 433.345L197.667 437.345L201.167 444.345L203.167 453.345L201.167 456.845L197.667 460.845L193.167 467.845L187.667 471.845Z" fill="#D6A2BE"/>
<path d="M121.167 242.845L113.167 236.345L139.667 234.345L179.167 291.345L188.167 303.345L189.167 319.845L188.167 346.345L179.167 328.345L161.667 300.345L139.667 268.345L121.167 242.845Z" fill="#A63531"/>
<path d="M105.667 22.3447L101.667 26.8447L107.667 34.8447L127.667 130.345L121.667 133.845H78.6667L71.6667 130.345L68.1667 135.345V143.345L127.667 145.345L138.167 200.345L142.167 234.845L167.167 232.845V228.345L126.667 26.8447L119.667 23.3447L105.667 22.3447Z" fill="black" stroke="black"/>
<path d="M186.133 3.17808C185.733 4.91142 185.867 8.91142 186.533 11.8448C187.2 14.7781 187.333 16.9114 186.8 16.6448C186.4 16.3781 184.8 16.9114 183.467 17.9781C181.333 19.4448 180.8 21.3114 180.933 28.1114C181.2 41.3114 181.6 43.7114 183.467 44.3781C184.533 44.7781 185.333 46.2448 185.333 47.5781C185.333 50.9114 178.533 61.0448 175.733 61.9781C174.4 62.3781 173.6 63.1781 173.867 63.7114C174.267 64.2448 173.067 68.2448 171.333 72.6448C169.467 76.9114 168 81.9781 168 83.9781C168 85.8448 167.333 87.9781 166.4 88.9114C165.2 90.1114 165.333 91.0448 167.067 92.9114C168.267 94.2448 169.333 95.9781 169.333 96.7781C169.333 97.5781 172.4 101.578 176 105.578C179.733 109.578 182.667 113.578 182.667 114.378C182.667 115.178 183.867 115.845 185.333 115.845C187.867 115.845 188 116.778 188 134.645V153.311L184 156.645C180.533 159.711 180.267 160.378 181.6 163.578C182.4 165.578 184.267 168.111 185.6 169.445C189.2 172.645 188.933 186.111 185.2 192.378C183.6 195.045 182 197.178 181.333 197.178C180.267 197.178 178.4 209.978 178.133 219.845C178 224.378 178.667 226.645 180.933 229.178C184.267 232.778 185.067 231.311 182 227.311C180.933 225.845 180 223.978 180 223.311C180 222.511 181.2 223.845 182.667 226.111C184.133 228.511 186.133 230.511 187.067 230.511C189.467 230.511 192.133 238.378 190.667 241.178C189.067 244.111 185.333 247.178 185.333 245.445C185.333 244.778 186.267 243.845 187.333 243.311C189.733 242.378 190 235.711 187.733 233.445C185.733 231.445 183.467 231.311 184.8 233.311C185.867 235.178 180.933 233.711 175.333 230.645C167.2 225.978 166.133 222.378 151.2 139.845C149.6 130.645 145.2 106.111 141.333 85.1781C129.867 21.3114 130.8 24.9114 125.067 22.1114C119.333 19.3114 106 18.1114 102.533 19.9781C101.2 20.6448 99.6 23.1781 98.8 25.4448C95.3333 36.7781 84.9333 70.2448 83.8667 73.8448C83.2 75.9781 79.6 87.7114 75.8667 99.8448C72.1333 111.978 67.7333 126.645 66 132.511C63.3333 141.445 52 177.978 38.5333 220.511C36.9333 225.578 34.9333 230.645 34.2667 231.445C33.6 232.378 30.1333 233.178 26.5333 233.178C21.2 233.178 20 232.778 20 230.778C20 229.045 19.7333 228.911 18.8 230.245C17.8667 231.711 17.6 231.711 16.9333 229.978C15.7333 226.911 10.6667 227.178 10.6667 230.378C10.6667 232.245 9.86667 232.645 7.33333 232.111C4.13333 231.578 0 233.711 0 235.845C0 237.711 6.13333 239.578 8.4 238.245C10.2667 237.311 10.6667 237.578 10.6667 239.845C10.6667 241.311 11.3333 242.511 12 242.511C12.8 242.511 13.7333 242.645 14.2667 242.778C14.8 243.045 15.7333 241.311 16.1333 239.178L16.9333 235.178L18.4 238.511C19.6 241.445 19.8667 241.445 19.8667 239.178C20 236.245 15.3333 236.378 67.7333 236.911L92.1333 237.178L91.8667 245.178C91.7333 249.578 92 253.578 92.4 254.111C93.3333 254.911 93.8667 246.378 93.3333 240.111C93.2 237.578 93.8667 237.178 97.4667 237.178H101.733L101.067 248.645C100.8 254.911 100.933 260.245 101.467 260.645C102.667 261.311 104.533 244.911 103.733 240.511C103.067 237.711 103.467 237.178 106.4 237.178H109.733L108.8 248.111C108.4 254.245 107.6 260.645 107.2 262.511C106.4 265.311 106.533 265.578 108.133 264.111C109.333 262.911 110.133 258.245 110.4 249.845C110.933 238.511 111.2 237.445 113.067 238.645C116.533 240.778 116.267 274.245 112.8 282.111C108.4 292.378 98.5333 298.511 86.5333 298.511C81.7333 298.511 81.7333 298.645 80.8 304.645C80.4 308.111 80 317.578 80 325.845C80 341.711 79.7333 342.511 73.3333 342.511C68.5333 342.511 49.7333 353.311 41.3333 360.778C24.9333 375.578 16.9333 389.845 14.5333 408.511C13.0667 419.845 14.9333 434.645 19.2 444.245L22 450.778L29.0667 451.045C32.8 451.045 36 450.778 36 450.378C36 449.978 34.9333 447.578 33.7333 445.045C32.1333 441.845 31.4667 437.178 31.3333 429.178C31.3333 418.778 31.7333 416.911 35.8667 408.778C43.8667 393.178 60.4 380.111 75.7333 377.711C80.8 376.911 81.3333 377.178 81.3333 379.445C81.3333 380.911 81.7333 383.978 82.1333 386.111C82.9333 389.978 82.8 390.111 76.5333 391.045C64.6667 392.645 53.6 401.445 48 414.111C44.1333 422.778 44.8 439.445 49.4667 447.711C51.0667 450.778 53.0667 453.178 53.7333 453.178C54.4 453.178 54.6667 452.778 54.4 452.111C46.1333 435.978 45.2 424.911 51.0667 412.911C56.4 401.978 67.2 394.111 78.5333 392.911C83.0667 392.511 83.0667 392.645 84.6667 399.578C86.2667 406.511 86.2667 406.645 82.8 408.511C73.6 413.178 66.8 424.245 66.6667 434.511C66.6667 443.445 70.5333 455.178 72.6667 452.911C73.2 452.511 72.5333 450.245 71.3333 447.845C68.2667 441.845 68.5333 429.445 71.8667 422.911C76.2667 414.245 88 405.445 88 410.778C88 411.711 89.6 415.711 91.3333 419.711L94.8 426.911L91.7333 430.111C89.4667 432.511 88.6667 435.178 88.4 441.578C88.1333 446.111 88.5333 450.778 89.2 451.845C91.3333 454.911 92.2667 452.645 90.6667 448.378C88.8 443.578 90.1333 435.311 93.6 431.578C95.6 429.178 96.4 428.911 96.9333 430.378C97.3333 431.445 99.7333 434.511 102.267 437.311C104.933 440.245 106.267 442.645 105.333 443.178C102.933 444.645 104.133 454.511 106.667 454.511C107.333 454.511 107.467 452.111 107.067 449.178C106.667 446.245 106.8 443.845 107.333 443.845C107.867 443.845 111.067 446.245 114.267 449.311C120.133 454.778 120.267 454.778 127.6 453.845C134.267 453.045 156.667 447.711 161.867 445.711C163.6 445.045 164 445.978 164.133 450.645C164.267 453.845 164.267 457.045 164.133 457.711C163.733 459.578 166.8 466.911 169.067 469.578C170.267 470.911 172.133 471.578 173.467 471.178C174.667 470.778 176.133 471.045 176.667 471.845C177.733 473.578 187.467 473.578 190.8 471.845C192.133 471.045 194.267 468.511 195.467 466.245C196.667 463.845 199.067 460.778 200.8 459.445C204.667 456.378 204.8 452.111 201.333 444.911C199.867 441.845 198.667 438.378 198.667 437.045C198.667 435.845 197.867 434.111 196.8 433.311C194.933 431.711 195.333 427.178 197.6 424.245C198.4 423.178 197.467 421.978 194.8 420.378L190.667 417.978V405.045C190.667 397.845 190.267 391.178 189.867 389.978C189.467 388.778 189.6 387.845 190.4 387.845C191.067 387.845 192 389.711 192.533 391.978C192.933 394.245 195.2 400.111 197.6 405.045C202.8 415.578 222.4 435.845 233.733 442.378C259.467 457.045 294.667 458.911 311.733 446.511C316.933 442.778 325.333 432.111 325.333 429.311C325.333 428.511 325.867 427.845 326.533 427.845C328.133 427.845 326.8 447.978 324.933 450.245C324.267 451.045 321.6 451.845 319.2 451.845C316.667 451.845 314.667 452.378 314.667 453.178C314.667 453.978 320.4 454.511 329.067 454.511C337.067 454.511 349.067 454.911 355.733 455.311C364.667 455.978 368 455.845 368 454.645C368 453.845 365.467 453.178 361.733 453.178C358.133 453.045 352.4 451.978 348.667 450.778C335.2 446.111 332.267 435.045 334.533 396.245C336.267 366.911 336.533 365.178 340.667 365.178C342.267 365.178 344.4 364.245 345.333 363.178C346.8 361.445 345.067 361.178 331.067 361.178C322.267 361.178 305.867 360.778 294.667 360.245C280.933 359.711 274.533 359.845 275.067 360.778C275.6 361.445 280.133 362.511 285.2 363.045C296.533 363.978 300.133 365.311 307.067 370.778C314.667 376.778 317.333 383.445 317.333 396.778C317.333 417.978 313.6 426.911 301.467 434.111C288.667 441.845 276.4 442.378 256.4 436.511L249.333 434.378V251.978L256.933 249.711C268.133 246.378 288.267 247.711 300.933 252.511C317.333 258.645 325.067 267.845 330 287.178C332.8 298.111 332.533 303.311 328.8 311.445C324.533 320.511 316.933 325.178 306.267 325.178C302 325.178 298.667 325.711 298.667 326.511C298.667 327.311 306.267 327.845 318.8 327.845H339.067L338.133 313.711C335.2 268.778 325.067 251.711 293.333 238.778C290.933 237.711 299.6 237.311 324.4 237.311C355.733 237.178 358.667 237.311 358.667 239.445C358.667 241.445 358.933 241.445 360.533 239.178C362.133 237.045 362.667 236.911 364.4 238.378C366.133 239.711 367.467 239.711 371.333 238.378C373.867 237.445 376 236.245 376 235.845C376 235.445 373.867 234.245 371.2 233.311C367.733 232.111 366 231.978 364.933 233.045C362.8 235.178 360.267 234.778 359.6 232.111C359.067 229.978 358.933 229.978 358.8 232.111C358.667 234.111 357.333 234.511 350.4 234.511C342.133 234.511 342 234.511 339.333 229.445C336.4 223.978 330.4 220.378 322 219.045C315.2 217.978 312.4 215.578 308.667 207.045C304.8 198.378 297.867 192.911 290.667 192.645C286.133 192.511 285.333 192.111 285.333 189.711C285.333 187.978 286.4 186.511 288 186.111C289.6 185.711 290.933 183.845 291.467 181.578C292.133 178.245 293.067 177.445 297.733 176.378L303.333 175.178V165.845C303.333 157.445 302.667 155.178 296.933 143.311C293.467 136.111 289.467 128.511 288 126.511L285.467 122.911L288.933 119.711C292.8 116.111 296 109.445 296 104.911C296 100.511 291.333 92.1114 285.333 85.8448L280.4 80.5114L280.933 57.5781C281.467 34.3781 280.533 26.7781 276.667 21.8448C274.667 19.3114 274.667 19.4448 275.467 23.8448C276.933 32.9114 268.4 46.5114 261.2 46.5114C257.867 46.5114 258 47.5781 262 50.7781C263.867 52.2448 266 54.6448 266.8 56.1114C269.467 61.1781 266.533 60.3781 260.267 54.2448C253.6 47.7114 244.933 42.5114 240.933 42.5114C239.467 42.5114 236.667 41.3114 234.667 39.8448C226.267 33.8448 216.133 30.2448 208 30.3781C203.6 30.3781 198.8 31.0448 197.333 31.8448C195.867 32.6448 194 32.9114 193.333 32.5114C191.333 31.1781 190.133 17.3114 191.867 13.4447C193.2 10.6447 193.2 9.84475 191.467 8.91142C190.267 8.24475 189.333 5.97808 189.333 3.84475C189.333 -0.955251 187.333 -1.35525 186.133 3.17808ZM187.733 38.2448C187.467 55.8448 187.333 56.7781 184.533 58.1114L181.6 59.4448L184.133 55.3114C186.933 50.7781 187.467 44.5114 185.333 43.1781C184.4 42.6448 184.267 41.7114 185.2 40.7781C185.867 39.8448 186 36.3781 185.2 31.9781C184.267 25.5781 185.2 19.8448 187.467 19.8448C187.733 19.8448 187.867 28.1114 187.733 38.2448ZM123.067 28.1114C125.6 30.6448 126.933 35.9781 131.067 59.1781C133.867 74.5114 137.6 95.3114 139.467 105.178C141.333 115.045 144 129.711 145.467 137.845C146.933 145.845 149.067 157.045 150.133 162.511C151.2 167.978 154.133 183.445 156.533 196.778C159.067 210.111 162.133 222.778 163.2 225.045C166.533 231.445 166.133 231.845 154.933 231.845H144.533L144.4 224.778C144.4 221.045 142.667 209.445 140.8 199.178C138.8 188.911 135.867 173.045 134.133 163.978C129.733 140.111 131.333 141.178 96.5333 141.178C68.4 141.178 67.3333 140.911 70.6667 135.845C71.7333 134.245 72.4 134.111 74.6667 135.445C76.5333 136.645 84.1333 137.178 99.7333 137.178C121.733 137.178 122.267 137.045 125.2 133.978L128.267 130.778L124 107.578C109.867 30.2448 111.6 37.8448 107.067 32.9114C102 27.5781 103.733 25.1781 112.667 25.1781C118.667 25.1781 120.667 25.8448 123.067 28.1114ZM222.4 35.9781C225.867 37.4448 230.533 40.1114 232.933 41.9781C235.2 43.7114 238.4 45.1781 239.867 45.1781C241.2 45.1781 243.467 45.5781 244.8 46.1114C246.933 46.9114 246.933 47.0448 244.533 47.9781C242.267 48.9114 242.267 49.0448 244.4 49.0448C252.8 49.4448 268.533 62.1114 265.2 65.9781C263.067 68.6448 257.333 68.2448 254.133 65.3114C250.933 62.3781 244 60.2448 244 62.2448C244 62.9114 245.6 63.8448 247.733 64.2448C251.6 65.1781 255.6 67.4448 254.667 68.1114C254.267 68.3781 250.267 68.3781 245.733 68.1114C238 67.7114 237.333 67.3114 237.333 64.5114C237.333 58.3781 245.067 54.2448 250.933 57.3114C252.533 58.1114 256.4 60.7781 259.333 63.0448C264.267 66.9114 264.533 66.9114 262.533 63.8448C259.733 59.5781 245.733 51.9781 244.267 53.9781C242.8 56.2448 237.6 53.7114 235.733 49.8448C233.867 45.5781 233.2 45.7114 230.4 50.5114C229.067 52.9114 227.067 54.5114 225.467 54.5114C221.467 54.5114 221.067 56.6448 224.667 58.2448C227.2 59.4448 228 60.7781 228 63.8448V67.8447H214.667C206.933 67.8447 201.333 67.3114 201.333 66.5114C201.333 64.7781 205.867 62.5114 209.2 62.5114C210.8 62.5114 212 61.8448 212 61.1781C212 59.1781 209.067 59.5781 203.6 62.3781L198.667 64.9114L197.867 61.7114C196.667 57.1781 198.133 54.5114 202.667 52.7781C204.933 51.9781 206.667 50.7781 206.667 50.2448C206.667 48.7781 205.6 48.9114 202.4 50.6448C200.267 51.8448 199.867 51.7114 200.267 50.2448C200.533 49.3114 202.8 47.9781 205.067 47.1781C210.267 45.7114 210 43.7114 204.267 42.2448C197.6 40.5114 199.6 37.1781 207.467 37.1781C209.2 37.1781 210.667 36.5114 210.667 35.8448C210.667 33.8448 205.2 34.2448 200.8 36.5114C197.067 38.5114 194 38.1114 195.333 35.7114C198 31.4448 212 31.5781 222.4 35.9781ZM278.267 54.5114C277.733 62.2448 277.6 70.7781 278 73.4448C278.533 77.5781 278.267 78.5114 275.867 79.1781C271.867 80.5114 216.267 80.5114 202.4 79.3114L190.667 78.2448V32.5114L193.333 36.9114C194.8 39.3114 197.467 41.9781 199.333 42.7781C202.667 44.2448 202.667 44.2448 200.133 47.0448C196.267 51.1781 194.533 56.9114 195.467 61.9781C196.8 69.0448 198.8 69.8447 215.2 69.8447H230L230.4 65.5781C230.667 63.1781 230.267 60.2448 229.467 58.7781C228.533 56.9114 228.8 55.9781 230.933 54.6448C235.333 51.8448 237.333 55.0448 236.133 62.7781C235.6 66.3781 235.333 69.4447 235.733 69.8447C236.133 70.2447 242.933 70.5114 250.8 70.5114C264.133 70.5114 265.333 70.2448 267.2 67.5781C270.267 63.3114 270 54.1114 266.667 51.1781C264.133 48.9114 264.133 48.7781 268.4 45.9781C270.8 44.5114 273.867 40.7781 275.333 37.7114L278 32.3781L278.667 36.3781C279.067 38.6448 278.933 46.7781 278.267 54.5114ZM106.267 38.2448C107.2 45.4448 120.133 116.778 121.867 124.111L123.733 131.845H99.0667C76.6667 131.845 74.4 131.578 75.2 129.711C76.9333 125.178 93.0667 73.1781 98.8 53.5781C102 42.5114 104.933 33.7114 105.333 33.9781C105.6 34.3781 106.133 36.2448 106.267 38.2448ZM188 84.5114C188 99.5781 187.467 110.511 186.8 110.511C186.133 110.511 184.267 108.911 182.8 106.778C181.333 104.778 179.2 102.245 178.267 101.178C173.2 95.7114 171.333 83.1781 175.2 79.8448C176.267 79.0448 176.8 77.4448 176.533 76.5114C176.133 75.5781 176.533 73.3114 177.467 71.5781C181.2 64.5114 185.467 58.5114 186.667 58.5114C187.467 58.5114 188 68.2448 188 84.5114ZM177.333 68.1114C175.2 71.9781 173.733 75.4448 174.133 75.9781C174.4 76.5114 173.733 78.6448 172.667 80.6448C169.2 87.3114 170.267 79.9781 174 72.1114C175.733 68.3781 176.8 65.1781 176.4 65.1781C175.733 65.1781 180 61.4448 180.933 61.1781C181.067 61.1781 179.333 64.2448 177.333 68.1114ZM198 82.5114C197.6 83.1781 197.867 83.8448 198.533 83.8448C199.333 83.8448 200 83.1781 200 82.5114C200 81.7114 201.2 81.1781 202.667 81.1781C205.867 81.1781 206 82.2448 203.2 85.3114C201.867 86.7781 201.6 87.8448 202.533 88.5114C203.333 88.9114 204.667 87.8448 205.6 85.9781C207.2 82.3781 210.667 81.1781 210.667 84.2448C210.667 85.3114 208.8 88.6448 206.667 91.5781C204.4 94.6448 203.2 97.1781 203.867 97.1781C205.867 97.1781 210.8 90.2448 211.6 86.2448C212 84.1114 212.933 82.5114 213.6 82.5114C214.933 82.5114 214 86.6448 211.333 91.9781C209.333 95.7114 198.133 106.511 196.133 106.511C195.467 106.511 194 106.911 192.8 107.311C191.467 107.845 190.667 107.445 190.667 106.111C190.667 104.911 192.4 103.845 195.333 103.311C197.867 102.778 200.267 101.711 200.8 100.911C201.467 99.8448 200.8 99.7114 198.933 100.245C197.333 100.778 194.8 101.578 193.333 101.978C191.2 102.645 190.667 102.245 190.667 99.4448C190.667 96.7781 191.467 95.9781 194.267 95.5781C196.133 95.3114 198 94.3781 198.4 93.4448C198.8 91.9781 198.4 91.8448 196.267 93.0448C192.267 95.1781 190.667 94.9114 190.667 91.9781C190.667 90.6448 191.867 89.1781 193.333 88.7781C194.8 88.3781 196 87.4448 196 86.6448C196 85.4448 195.333 85.4448 193.333 86.5114C190.933 87.7114 190.667 87.5781 190.667 84.5114C190.667 81.7114 191.333 81.1781 194.8 81.1781C197.067 81.1781 198.533 81.7114 198 82.5114ZM283.2 86.7781C294.4 99.5781 295.733 108.245 288.133 117.178C283.467 122.911 281.467 121.845 285.2 115.711C286.8 113.178 288 109.045 287.867 106.511C287.867 101.978 287.733 102.111 286.133 108.245C284 115.845 282 118.378 279.867 116.245C278.667 115.045 278.8 113.845 280.533 111.311C282.933 107.578 283.333 103.845 281.467 103.845C280.8 103.845 279.867 105.178 279.6 106.778C279.2 109.178 278.933 108.911 278.8 105.711C278.8 103.578 279.333 101.045 280.267 100.111C281.467 98.9114 281.467 98.1114 280.267 96.9114C278.267 94.9114 278.133 89.9781 280.133 91.3114C280.933 91.7114 282.667 93.9781 284.133 96.3781C286 99.4448 286.667 99.8448 286.667 97.9781C286.667 96.6448 284.267 92.9114 281.333 89.7114C276.133 84.1114 274.8 81.1781 277.2 81.1781C277.867 81.1781 280.533 83.7114 283.2 86.7781ZM275.467 84.9114C276 86.1114 276.533 93.5781 276.667 101.311L276.933 115.445L282.533 123.311C292.133 136.511 300.4 155.178 301.067 164.778C301.6 172.911 301.6 173.045 298 173.978C296 174.511 291.2 174.111 287.2 173.178C281.333 171.711 278.667 171.711 272.8 173.178C268.933 174.111 264.933 174.511 264.133 173.978C262 172.645 262.267 169.045 264.933 166.245C266.133 164.911 266.667 163.445 266.133 162.778C264.8 161.578 260 167.445 260 170.378C260 171.578 260.533 173.311 261.2 174.378C262.133 175.845 260.933 177.311 256.267 180.245C238.267 191.711 230.4 192.111 223.333 181.845C222.4 180.378 221.2 179.578 220.667 179.978C219.6 181.045 223.333 190.245 226 193.311C227.867 195.178 227.733 195.978 224.933 199.978C218.4 209.711 204.133 213.445 194.933 207.845C190.8 205.311 190.533 204.778 190.933 198.111C191.333 192.111 191.733 191.178 194.267 190.778C197.467 190.378 202.667 181.178 202.667 176.111C202.667 171.845 196.8 166.111 193.467 167.178C190.933 167.978 190.667 167.445 190.667 162.645C190.667 159.578 191.333 157.178 192.133 157.178C194.4 157.178 202.4 149.045 204 145.045C204.933 143.045 206.4 141.045 207.333 140.645C208.8 140.111 208.8 138.911 207.2 133.711C204.4 124.245 198.8 116.245 194.4 115.311C188.933 114.245 189.333 109.845 194.933 108.645C197.2 108.245 201.2 106.245 203.733 104.378C209.067 100.245 216 89.8448 216 85.9781C216 83.3114 216.667 83.1781 245.2 82.9114C271.6 82.6448 274.533 82.7781 275.467 84.9114ZM196.4 122.245C197.6 123.311 198.667 125.311 198.667 126.645C198.667 127.845 199.2 129.178 199.867 129.445C201.2 129.845 201.867 134.245 201.6 139.578C201.467 141.445 200.267 143.045 198.933 143.445C197.6 143.711 196 145.311 195.333 146.778C194.533 148.378 193.2 149.845 192.4 150.245C191.067 150.645 190.667 146.911 190.667 134.511C190.667 117.578 190.8 117.445 196.4 122.245ZM197.867 149.445C193.333 154.511 191.6 155.845 190.8 155.178C190.267 154.511 200 145.178 201.2 145.178C201.6 145.178 200.133 147.178 197.867 149.445ZM127.867 157.445C128.8 163.578 131.6 179.311 134.133 192.511C136.533 205.711 138.8 219.445 138.933 223.178L139.333 229.845L132.667 232.111C121.067 236.111 46.4 235.178 44.8 231.045C44.4 230.111 46.9333 220.378 50.4 209.578C53.8667 198.645 59.7333 180.111 63.3333 168.111L70 146.511H126.133L127.867 157.445ZM188 163.311C188 164.378 187.467 164.911 186.667 164.511C186 164.111 185.333 164.245 185.333 165.045C185.333 166.778 189.733 169.178 192.8 169.178C196 169.178 200 173.045 200 176.111C200 177.578 199.333 178.245 198.667 177.845C197.867 177.311 197.467 175.978 197.6 174.778C197.867 173.311 196.4 171.978 192.667 170.778C185.333 168.378 183.067 165.978 185.333 163.311C187.467 160.645 188 160.645 188 163.311ZM194.267 172.911C195.2 173.445 196.133 175.978 196.267 178.378C196.533 181.711 196 183.311 193.733 184.778C190.667 186.778 190.667 186.778 190.667 179.311C190.667 171.845 191.2 170.911 194.267 172.911ZM285.2 175.311C288.8 176.111 289.467 176.778 289.067 179.711C288.667 182.911 288 183.311 278.8 184.778C273.333 185.711 265.867 188.111 262.133 189.978C258.4 191.978 253.867 194.378 252 195.445C244.667 199.311 226.667 195.711 226.667 190.378C226.667 189.311 227.333 189.311 228.667 190.511C232.667 193.845 243.467 191.178 254.533 184.245C267.867 175.845 276 173.445 285.2 175.311ZM282.667 191.178V195.845H270.667C264.133 195.845 258.667 195.578 258.667 195.178C258.667 193.178 272.533 187.978 281.733 186.645C282.267 186.511 282.667 188.645 282.667 191.178ZM187.867 211.445L188 229.845L185.333 226.645C181.867 222.645 182.133 209.578 185.867 199.178C186.933 196.511 186.8 196.511 184.8 199.045C183.6 200.511 182.667 201.311 182.667 200.778C182.667 199.711 186.667 193.178 187.333 193.178C187.467 193.178 187.733 201.445 187.867 211.445ZM300.267 199.445C302.533 201.445 305.6 206.245 307.333 210.111C310.933 218.111 314.267 220.511 323.2 221.845C328.267 222.511 330.933 223.845 334.267 227.178C339.067 231.978 339.867 234.511 336.667 234.511C335.6 234.511 334.667 233.711 334.667 232.645C334.667 229.711 328.267 225.311 322.8 224.511C313.467 222.911 311.867 222.378 309.2 219.711C307.733 218.245 306 217.311 305.6 217.845C303.6 219.711 312 224.911 318.4 225.845C325.2 226.778 333.333 230.778 333.333 233.178C333.333 233.845 330.133 234.511 326.267 234.511C320.8 234.511 318.533 233.845 316.8 231.978C315.467 230.511 312.667 228.911 310.533 228.511C308.4 227.978 304.8 226.111 302.667 224.245C299.467 221.578 298.667 221.445 298.667 223.045C298.667 225.445 306 230.511 309.467 230.511C310.533 230.511 312.667 231.445 314.133 232.511C316.4 234.245 316 234.378 309.067 234.511C302 234.511 300.8 234.111 296 229.711C293.067 227.045 290.667 225.711 290.667 226.645C290.667 227.578 292.267 229.711 294.4 231.445L298 234.378L293.2 234.511C289.067 234.511 288.133 233.978 287.467 231.311C287.067 229.578 284.533 226.645 282 224.645C277.733 221.311 277.333 220.511 277.333 214.111C277.333 206.778 275.2 201.178 272.133 200.111C270.667 199.578 270.8 200.245 272.4 202.645C273.733 204.511 274.667 208.378 274.667 212.245C274.667 219.845 275.6 221.845 282.267 228.645C286 232.378 286.8 233.845 285.333 234.111C283.067 234.645 270.667 223.711 270.667 221.311C270.667 220.511 270.133 219.845 269.333 219.845C266.933 219.845 267.867 223.845 270.8 226.245C272.4 227.445 275.2 229.845 277.2 231.445L280.667 234.378L273.733 234.511C268 234.511 266.533 233.978 265.333 231.711C264.4 230.245 262.667 227.845 261.2 226.378C259.867 225.045 258.667 222.645 258.667 221.045C258.667 219.578 258.133 218.778 257.333 219.178C255.067 220.645 255.867 223.578 260 228.245C262.267 230.778 264 233.178 264 233.711C264 234.111 259.2 234.511 253.333 234.511C243.867 234.511 242.667 234.245 242.667 231.978C242.667 230.645 244 227.978 245.467 225.978C247.067 223.978 248 221.978 247.467 221.578C246.133 220.111 241.467 227.178 241.333 230.778C241.333 234.378 241.2 234.511 233.333 234.511C228.933 234.511 225.333 234.111 225.333 233.711C225.333 233.311 228.4 230.111 232 226.645C237.867 221.045 238.667 219.711 238.667 214.911C238.667 206.245 242.4 198.645 245.6 200.645C246.133 201.045 246.667 204.645 246.667 208.645C246.667 212.911 247.2 215.845 248.133 215.845C249.067 215.845 249.467 212.911 249.067 207.445C248.667 199.978 248.933 199.178 251.333 199.178C253.467 199.178 254.133 200.511 255.067 206.111C255.733 209.978 256.8 213.178 257.467 213.178C258.933 213.178 257.733 204.645 255.867 200.911C254.133 197.711 254.4 197.178 256.933 197.178C261.2 197.178 265.333 202.645 265.333 208.111C265.333 210.911 266 213.178 266.667 213.178C268.667 213.178 268.267 204.778 266 201.578C264 198.778 264.133 198.778 272.667 199.045C280.4 199.178 281.6 199.578 285.867 203.711C288.4 206.111 291.2 209.978 292.133 211.978C293.467 215.445 296 217.311 296 214.911C296 212.111 288.533 202.111 284.933 200.245L280.667 197.845L284.267 197.445C286.267 197.178 289.6 197.978 291.867 199.045C295.867 201.178 301.333 207.711 301.333 210.378C301.333 211.178 302 211.845 302.667 211.845C304.4 211.845 304.4 211.045 302.133 206.778C299.467 201.578 294.667 197.578 289.333 195.978L284.667 194.511L290.533 195.045C294.533 195.445 297.467 196.778 300.267 199.445ZM230 203.711C228.933 205.978 226.133 209.978 223.867 212.511C221.6 215.045 220.4 217.178 221.067 217.178C223.2 217.178 230.533 207.711 232.133 202.911C232.933 200.511 234.133 198.511 234.8 198.511C236.4 198.511 236.4 200.778 234.8 201.711C234.133 202.245 232.667 205.311 231.467 208.778C230.267 212.111 228.4 216.111 227.067 217.445C225.867 218.778 225.2 220.245 225.733 220.645C227.333 222.245 229.2 219.578 232.667 210.511C234.667 205.445 236.8 200.778 237.6 200.378C239.467 199.178 240.533 200.911 239.067 202.778C238.267 203.711 237.2 207.978 236.667 212.245C235.867 219.311 235.2 220.645 228.533 227.311C222.267 233.445 220.533 234.511 216.267 234.511L211.333 234.378L216.4 231.711C219.067 230.245 221.333 228.511 221.333 227.845C221.333 225.845 219.2 226.245 217.467 228.378C213.867 232.645 192 236.911 192 233.311C192 232.645 191.6 230.245 191.2 227.845C190.267 223.711 190.4 223.578 193.2 225.045C196.8 227.045 210.933 226.378 211.6 224.245C212 223.045 211.067 222.911 207.733 223.978C203.733 225.045 199.467 224.778 193.067 223.045C191.467 222.511 190.667 221.045 190.667 218.378C190.667 214.511 190.8 214.378 193.6 216.378C196.933 218.778 210 219.311 211.333 217.178C211.867 216.378 210 216.111 206.4 216.645C199.867 217.445 191.6 213.978 190.933 210.245C190.533 208.245 191.067 208.245 195.6 210.645C198.267 211.978 202.533 213.178 204.933 213.178C209.467 213.178 217.6 210.378 221.333 207.445C222.533 206.511 222 207.178 220.267 208.911C218.533 210.645 217.467 212.378 217.867 212.778C219.2 214.111 226.267 206.645 228.8 201.311C230.133 198.645 231.333 197.178 231.6 198.111C231.867 198.911 231.2 201.445 230 203.711ZM160 249.045C177.333 272.111 188 288.245 187.867 291.045C187.867 292.511 187.333 295.045 186.8 296.378C186 298.511 185.2 297.978 182 292.378C178.267 286.111 164.4 266.511 149.733 247.045C145.867 241.845 142.667 237.311 142.667 236.911C142.667 236.645 144.667 236.645 147.067 236.911C150.667 237.311 152.667 239.311 160 249.045ZM142.933 241.711C144.667 244.245 154.933 258.645 165.733 273.845C176.533 288.911 186 302.778 186.667 304.645C187.467 306.511 188 315.978 188 325.578L187.867 343.178L179.467 327.178C174.8 318.378 167.467 306.111 163.2 299.978C158.8 293.711 149.2 279.578 141.6 268.645C134 257.578 125.333 245.978 122.267 242.778L116.8 237.178H140L142.933 241.711ZM172.667 251.978C187.6 272.645 188.267 273.711 187.733 279.178L187.333 283.978L180.4 273.578C176.667 267.845 169.067 257.311 163.467 250.111L153.333 237.178H157.733C161.6 237.311 162.933 238.511 172.667 251.978ZM177.867 242.111C181.2 245.978 181.733 247.711 181.467 253.311C181.2 258.778 181.733 260.378 184.667 263.311C186.533 265.178 187.867 267.445 187.733 268.111C187.467 268.911 184.933 266.111 182.133 261.845C179.2 257.578 174 250.378 170.533 245.711L164.133 237.178L169.067 237.311C173.067 237.311 174.8 238.245 177.867 242.111ZM184.667 239.845C186 241.311 186.4 242.511 185.6 242.511C184.8 242.511 184 243.445 183.733 244.511C183.467 245.978 182.267 245.178 179.6 241.845L175.867 237.178H179.067C180.8 237.178 183.333 238.378 184.667 239.845ZM238 241.045C228.267 245.711 212 260.378 205.2 270.778C200.4 278.378 200.267 278.378 199.6 274.645C199.067 272.511 196.933 268.645 194.667 266.111C191.067 261.978 190.667 260.645 190.667 252.778C190.667 247.978 191.333 243.578 192 243.178C192.8 242.778 193.333 241.178 193.333 239.711C193.333 237.311 194.533 237.178 219.733 237.178H246L238 241.045ZM270 241.178C269.6 241.845 267.733 242.511 265.867 242.511C258.667 242.511 250.533 245.578 247.333 249.445L244 253.445V343.045C244 441.178 243.6 436.111 251.867 440.378C258.267 443.711 276.933 446.911 284.533 445.978C293.333 444.778 303.6 440.111 310.4 433.978C318 427.045 321.6 417.845 322.4 403.045C323.2 388.378 321.2 379.311 315.867 371.845L312 366.511H320.533C325.333 366.511 329.467 367.045 329.867 367.711C330.267 368.245 330 380.911 329.2 395.845L327.733 422.778L316.8 433.845C303.467 447.311 300.267 448.511 279.333 448.378C255.2 448.245 239.467 442.111 221.733 426.245C210.667 416.245 205.467 409.178 198.667 395.178C194.533 386.378 193.467 382.645 192.8 373.578C192.4 366.645 192.533 362.245 193.467 361.711C195.6 360.511 196 361.311 198.667 374.511C202.667 394.111 214 414.511 220.8 414.511C221.733 414.511 223.467 413.178 224.533 411.578C226.4 408.911 226.667 400.111 226.667 341.845V274.911L223.6 272.111L220.4 269.178L216.933 271.845C212.4 275.445 204.933 288.778 201.867 298.778C200.533 303.045 199.067 306.511 198.4 306.511C197.733 306.511 196.533 305.045 195.733 303.178C194.4 300.245 194.667 299.311 197.6 296.111C201.733 291.711 204 287.445 204 284.245C204 277.045 222.267 257.045 238.533 246.245C248.267 239.845 248.4 239.845 259.6 239.845C266.8 239.845 270.533 240.378 270 241.178ZM288.667 241.311C289.333 242.245 287.2 242.511 282.667 242.378C273.733 241.978 272.533 239.845 281.2 239.845C284.8 239.845 288.267 240.511 288.667 241.311ZM124 256.778C124 261.311 124.667 265.445 125.467 265.978C126.533 266.645 126.667 264.511 126 258.378C125.467 253.711 125.333 250.111 125.733 250.511C128.533 253.178 133.333 261.845 133.333 264.245C133.333 265.978 133.733 266.511 134.4 265.711C134.933 264.778 137.2 266.911 140.267 271.311C145.067 278.245 144.8 280.778 139.733 276.245C138.4 275.045 136.933 274.378 136.533 274.911C135.067 276.378 137.333 278.245 142.4 279.978C145.067 280.911 148 282.511 148.933 283.711C153.867 290.378 139.333 288.378 133.333 281.711C131.2 279.178 129.333 276.511 129.333 275.711C129.333 274.911 128.8 274.778 128 275.178C125.867 276.511 130.267 283.711 135.067 286.645C138 288.511 141.2 289.178 145.6 288.911C150.933 288.778 152.267 289.178 154.533 292.111C156.933 295.178 157.067 295.711 155.2 296.378C144.8 300.378 128.667 291.711 122 278.511C119.333 273.311 118.667 269.311 118 256.378L117.067 240.511L120.533 244.511C123.333 247.845 123.867 249.845 124 256.778ZM186.267 258.245C187.333 260.778 188 263.045 187.6 263.311C186.4 264.645 183.867 259.845 183.2 254.911C182.933 252.111 183.067 250.778 183.467 251.845C183.867 252.911 185.2 255.845 186.267 258.245ZM197.467 274.911C200 280.378 200.933 283.445 200 284.378C199.333 285.045 198.667 286.645 198.667 287.845C198.667 289.045 196.933 291.711 194.667 293.578C191.867 296.111 190.667 298.378 190.667 301.178C190.667 303.445 191.067 305.178 191.733 305.178C192.267 305.178 193.867 310.111 195.2 316.111C196.667 322.245 198.267 328.111 198.8 329.178C200.267 332.245 197.733 343.578 194 351.311C192.133 355.045 190.667 358.778 190.667 359.445C190.667 360.245 189.467 361.178 188 361.578C186.533 361.978 184.133 364.511 182.4 367.311C180.8 369.978 179.2 371.578 178.933 370.778C178.667 369.845 180.8 366.245 183.733 362.778C189.867 355.445 193.333 349.045 193.333 345.311C193.333 343.845 194 342.245 194.8 341.711C196.8 340.511 195.467 325.178 193.333 323.845C192.4 323.311 192.133 321.711 192.533 320.245C192.933 318.911 192.133 314.511 190.667 310.511C187.733 302.511 187.333 297.045 189.333 295.045C191.2 293.178 191.733 271.978 190 271.311C189.333 270.911 189.867 270.645 191.333 270.645C193.333 270.511 193.467 270.111 192.267 268.911C190.267 266.911 190.133 264.645 192.133 265.845C192.8 266.378 195.2 270.378 197.467 274.911ZM222 341.711C222 409.578 221.867 411.578 219.6 409.445C214.933 405.178 205.6 383.578 203.467 371.978C200.933 358.511 200.667 334.378 202.933 332.111C204.133 330.911 204.133 330.511 202.933 330.511C198.933 330.511 203.6 305.845 210.533 291.178C213.867 283.978 220.933 271.845 221.733 271.845C221.867 271.845 222 303.311 222 341.711ZM126.933 290.111C133.333 296.645 142.933 300.245 151.867 299.311L159.333 298.511L164.267 305.445C167.067 309.178 169.067 312.511 168.933 312.645C168.667 312.911 166.133 312.245 163.333 311.178C156.933 308.911 154.133 308.778 147.867 310.511C142.533 311.978 130.8 321.578 132.267 323.178C132.8 323.711 135.6 322.111 138.4 319.578C147.333 311.445 156.267 310.245 167.2 315.311C169.467 316.511 172 318.645 172.8 320.245C173.6 321.845 177.333 328.911 181.067 335.978C184.933 343.045 188 350.245 188 352.111C188 354.245 185.867 357.845 182 361.845C176.8 367.445 176 369.311 175.2 375.978C174.533 382.511 174.8 384.378 177.333 388.511C178.933 391.045 180 394.111 179.6 395.045C179.2 395.978 179.467 397.445 180.267 398.245C181.333 399.311 181.067 401.311 179.467 405.311C176.533 412.645 178.267 418.645 184 420.778C186.933 421.845 188 423.178 188 425.578C188 428.245 186.8 429.578 182.267 431.711C179.067 433.311 175.6 434.511 174.667 434.511C173.6 434.511 170.933 436.245 168.667 438.511C165.467 441.578 161.333 443.311 149.333 446.378C140.933 448.511 131.2 450.778 127.733 451.178C121.6 452.111 121.2 451.978 114.133 445.845C101.067 434.645 91.7333 418.645 87.4667 399.978C84.1333 385.578 81.3333 364.511 81.3333 354.111V345.045L85.2 347.711C90.8 351.711 99.7333 352.645 105.467 349.978L110 347.711L105.6 351.711C103.2 353.978 102 355.845 102.933 355.845C103.733 355.845 106 354.511 107.733 352.778L111.067 349.845L110 356.511C109.467 360.111 107.6 367.711 105.733 373.178C101.867 384.645 101.467 393.845 104.533 396.911C105.867 398.245 108.667 398.911 112.267 398.778C115.467 398.645 122 398.645 127.067 398.511C135.067 398.511 136.133 398.245 137.2 395.711C138.267 392.511 137.467 385.845 136.133 387.178C135.733 387.711 135.333 389.711 135.333 391.578C135.333 395.045 135.067 395.178 129.333 394.911C126 394.778 120.933 395.311 118 395.978C111.067 397.711 105.867 395.845 105.067 391.445C104.667 389.578 105.6 383.978 106.933 379.045C113.733 354.778 114.8 343.445 111.867 328.645C110.4 321.711 109.733 320.778 104.4 317.578C97.7333 313.711 89.7333 313.845 85.2 317.978C82.8 320.245 82.6667 320.111 82.6667 314.911C82.6667 311.978 83.0667 307.578 83.4667 305.311C84.1333 301.978 84.9333 301.178 87.8667 301.178C89.8667 301.178 94.5333 300.245 98.4 299.178C106.4 296.778 113.333 289.578 115.867 280.911L117.6 275.178L120.267 280.511C121.733 283.445 124.8 287.711 126.933 290.111ZM103.467 319.978C106 321.445 108 322.778 108 322.911C108 323.045 108.533 325.178 109.2 327.578C110.4 331.845 110.4 331.845 107.6 329.845C103.467 326.911 92.2667 327.311 87.0667 330.511L82.6667 333.178V327.845C82.6667 323.178 83.3333 322.111 87.0667 319.845C92.5333 316.378 97.8667 316.511 103.467 319.978ZM101.333 331.845C104.267 334.778 104.8 340.645 102.4 345.845C100.4 350.378 94.4 350.378 90 345.845C86.2667 342.111 85.7333 337.711 88.6667 333.578C90.4 331.045 91.8667 330.378 97.7333 329.311C98.2667 329.311 99.8667 330.378 101.333 331.845ZM110.667 338.911C110.667 342.645 107.6 347.845 105.2 347.845C104.667 347.845 104.933 345.845 105.6 343.311C106.667 340.111 106.533 337.578 105.6 334.645L104.133 330.511L107.467 332.645C109.733 334.111 110.667 335.978 110.667 338.911ZM84.9333 339.845C84.9333 345.845 84.4 346.511 82.8 342.245C82.1333 340.378 82.2667 338.245 83.2 336.911C84 335.578 84.6667 334.511 84.8 334.511C84.9333 334.511 84.9333 336.911 84.9333 339.845ZM79.3333 359.845C79.4667 374.245 79.3333 374.511 76.4 374.511C71.8667 374.511 61.2 378.911 54.5333 383.578C45.4667 389.711 39.2 396.778 33.7333 407.178C28.8 416.378 28.6667 416.778 28.6667 431.178C28.6667 444.911 28.5333 445.845 26 445.845C22.6667 445.845 20.1333 440.645 17.7333 429.178C15.2 417.578 16.5333 404.645 21.7333 391.178C25.2 381.845 27.0667 379.178 36.5333 369.711C50.9333 355.178 66.8 345.445 76 345.311L79.3333 345.178V359.845ZM188 379.445V395.045L184.533 390.378C182.133 387.178 181.333 384.778 181.867 382.245C182.267 380.245 182 378.245 181.333 377.845C179.467 376.645 185.2 363.845 187.467 363.845C187.733 363.845 188 370.911 188 379.445ZM178.667 384.378C177.733 385.311 177.333 383.578 177.467 379.045L177.6 372.511L178.8 377.711C179.6 381.178 179.6 383.445 178.667 384.378ZM185.2 395.178C185.867 396.645 186 398.645 185.6 399.711C185.067 401.045 184.533 400.645 183.6 398.378C182.8 396.645 182.267 394.511 182.133 393.845C182 393.045 181.2 391.045 180.267 389.178L178.533 385.845L181.333 389.178C182.8 391.045 184.667 393.711 185.2 395.178ZM188 407.978C188 413.845 187.6 415.845 186.4 415.445C184.667 414.911 184.4 409.045 185.867 403.178C187.2 397.711 188 399.445 188 407.978ZM182.8 409.178C180.8 410.378 182.4 414.645 185.867 417.445C187.467 418.778 187.867 419.845 187.067 419.845C184.4 419.845 180 414.778 180 411.845C180 410.511 180.8 407.578 181.733 405.578C183.333 401.978 183.333 401.978 183.733 405.045C184 406.778 183.6 408.645 182.8 409.178ZM194.133 427.178C192.933 431.711 192.667 431.311 191.467 424.511C190.533 419.445 190.667 419.311 192.8 421.445C194.4 422.911 194.8 424.645 194.133 427.178ZM195.6 435.445C196.533 436.645 197.333 438.511 197.333 439.445C197.333 442.111 194.933 441.445 194 438.511C192.667 434.378 188.533 432.778 183.6 434.378C179.6 435.711 179.467 435.711 182 433.711C185.333 431.178 193.333 432.111 195.6 435.445ZM192.533 439.045C193.6 440.911 195.733 442.645 197.2 443.178C198.533 443.578 200 445.311 200.4 446.911C200.667 448.511 201.333 450.778 201.867 451.978C202.4 453.311 201.467 455.311 199.2 457.578C197.333 459.578 194.667 463.045 193.333 465.445C190.8 470.245 186 472.511 187.6 468.245C188 466.911 189.6 464.378 190.933 462.511C193.067 459.845 193.333 457.978 192.667 452.511C191.6 444.778 190 442.245 186.133 442.645C182.667 442.911 178.667 441.311 178.667 439.711C178.667 438.111 183.6 435.978 187.467 435.978C189.067 435.845 191.333 437.311 192.533 439.045ZM177.333 439.845C177.333 440.511 176.4 441.578 175.333 442.111C174.267 442.778 172.267 446.778 170.8 451.178C168.8 457.711 168.667 459.578 170 461.178C172.267 463.978 173.733 469.178 172.267 469.178C170 469.178 167.6 465.045 167.333 460.778C167.2 458.378 166.667 454.911 166 452.778C165.333 450.245 165.733 448.111 167.467 445.445C168.8 443.445 169.733 441.311 169.6 440.778C169.467 440.111 169.867 439.978 170.533 440.378C171.2 440.911 172.133 440.645 172.667 439.845C173.733 438.111 177.333 438.111 177.333 439.845ZM180.4 444.511C180.533 445.178 178.933 446.111 176.8 446.245C173.2 446.645 173.067 446.511 174.667 444.511C176.533 442.245 180 442.245 180.4 444.511ZM189.467 447.311C190.133 449.311 190.4 451.178 190.133 451.578C189.067 452.511 184.133 446.111 184.933 444.911C186.133 442.778 188.133 443.978 189.467 447.311ZM184.533 448.645C187.6 449.845 187.333 456.778 184.133 458.511C179.6 460.911 177.2 460.111 177.733 456.511C177.867 454.778 178.667 452.778 179.2 452.245C179.867 451.711 180 452.511 179.6 454.111C178.8 457.578 180.667 458.245 181.867 455.045C183.2 451.578 182.8 450.511 179.867 450.511C178.267 450.511 176.8 451.578 176.4 453.178C175.467 456.511 173.333 456.645 173.333 453.445C173.333 448.778 178.8 446.378 184.533 448.645ZM192 455.711C192 459.445 186.8 465.178 183.333 465.178C178.533 465.178 178.133 461.578 182.8 460.645C185.333 460.111 187.2 458.778 188 456.511C189.467 452.645 192 452.111 192 455.711ZM175.333 458.778C176.8 460.911 176.933 461.978 175.867 462.378C174.267 462.911 170.667 459.045 170.667 456.911C170.667 454.778 173.2 455.845 175.333 458.778ZM178.533 465.711C179.467 466.778 181.467 467.178 183.733 466.778C187.067 466.111 187.2 466.245 185.467 468.378C182.933 471.445 177.467 470.645 174.933 466.778C173.2 464.245 173.2 463.845 175.067 463.845C176.133 463.845 177.733 464.645 178.533 465.711Z" fill="black"/>
<path d="M214.667 38.2447C214.667 39.0447 216.267 39.9781 218.267 40.5114C220.267 40.9114 223.6 42.6447 225.733 44.1114C228.4 45.9781 229.467 46.3781 229.067 45.0447C228 41.7114 214.667 35.4447 214.667 38.2447Z" fill="black"/>
<path d="M212.4 48.778C212.933 49.578 214.933 50.5114 216.933 50.778C219.067 51.178 221.867 51.978 223.333 52.5114C225.733 53.4447 225.867 53.3114 223.867 51.3114C221.6 48.778 211.067 46.5114 212.4 48.778Z" fill="black"/>
<path d="M214.667 62.3781C214.667 63.0447 215.733 63.8448 217.067 64.2448C218.267 64.5114 220.533 65.3114 222 65.8447C224.267 66.6447 224.267 66.3781 221.467 63.9781C218.267 61.0447 214.667 60.2447 214.667 62.3781Z" fill="black"/>
<path d="M216.4 102.778C207.6 104.645 209.2 106.911 218.667 105.845C225.333 105.045 227.867 105.445 234.133 107.978L241.467 111.045L231.333 112.778C221.2 114.511 215.867 116.378 216.133 118.245C216.267 120.511 224.933 125.845 231.2 127.445C234.933 128.378 242.933 129.178 248.933 129.045L259.733 128.778L260.533 124.378C261.067 121.978 261.067 118.645 260.667 116.911C260.133 114.511 261.067 113.178 265.333 110.245C268.267 108.245 270.667 105.578 270.667 104.245C270.667 102.378 270.267 102.378 267.733 104.778C259.467 112.245 250.4 112.511 235.067 105.845C229.067 103.311 223.733 101.178 223.067 101.311C222.533 101.445 219.467 101.978 216.4 102.778ZM249.2 116.778C248.533 118.778 248.267 121.845 248.667 123.711L249.467 126.911L240 126.111C231.2 125.445 220 121.045 220 118.378C220 116.911 235.2 114.111 246.933 113.445C250.4 113.178 250.533 113.445 249.2 116.778ZM258.4 120.111C258 125.178 257.6 125.845 254.667 125.845C251.067 125.845 249.867 123.178 251.2 117.711C251.867 115.445 252.933 114.511 255.467 114.511C258.533 114.511 258.8 114.911 258.4 120.111Z" fill="black"/>
<path d="M261.333 129.978C261.333 131.178 259.2 134.245 256.667 136.778C251.333 142.111 251.333 143.845 256.667 140.378C261.733 137.045 266.133 127.845 262.667 127.845C262 127.845 261.333 128.778 261.333 129.978Z" fill="black"/>
<path d="M278.933 203.978C280.8 206.511 283.067 210.645 284 213.178C286.4 219.578 288.667 221.711 287.467 216.511C286.267 211.445 279.867 200.911 277.467 200.111C276.4 199.711 276.933 201.311 278.933 203.978Z" fill="black"/>
<path d="M192.933 275.578C195.733 277.311 196.267 283.311 194 287.978L191.867 292.511L194.667 289.311C198.8 284.511 198 274.511 193.467 274.511C192 274.511 191.867 274.911 192.933 275.578Z" fill="black"/>
<path d="M142.8 328.111C132.533 333.578 131.067 341.845 139.2 347.178C143.6 350.111 156.533 351.178 163.6 349.311C169.867 347.578 176 341.311 176 336.645C176 327.178 154.8 321.845 142.8 328.111ZM158.4 328.911C160.8 330.511 162.267 337.045 161.333 342.511L160.667 347.178H144.8L142.933 342.245C141.333 338.111 141.333 336.511 142.667 333.311C143.467 331.045 145.2 329.045 146.4 328.778C150.267 327.711 156.533 327.845 158.4 328.911ZM172 333.845L175.067 337.045L164.667 347.178L164 339.178C163.6 334.778 162.8 330.511 162.267 329.578C160.4 326.645 168.667 330.378 172 333.845ZM140.267 345.178C139.467 346.245 136 340.778 136 338.511C136 337.311 136.8 335.578 137.733 334.645C139.067 333.311 139.467 334.111 140 338.778C140.4 341.978 140.533 344.778 140.267 345.178Z" fill="black"/>
<path d="M147.6 336.245C146.533 338.911 148.8 341.711 151.2 340.778C154.267 339.578 154 334.511 150.8 334.511C149.467 334.511 148 335.311 147.6 336.245Z" fill="black"/>
<path d="M130.667 345.711C130.667 348.778 140.8 358.511 144.133 358.511C145.6 358.511 146.4 357.845 146 357.178C145.6 356.378 144.4 355.845 143.333 355.845C142.4 355.845 139.067 353.045 136.133 349.711C132.667 345.711 130.667 344.245 130.667 345.711Z" fill="black"/>
<path d="M113.067 415.711C111.733 416.645 109.333 417.178 107.867 416.778C106.267 416.378 105.333 416.778 105.333 417.978C105.333 419.045 106.667 419.845 108.4 419.845C110 419.845 112.533 420.645 114 421.711C119.2 425.178 124 425.445 128.933 422.511C131.467 421.045 134.933 419.845 136.667 419.845C138.4 419.845 140.267 419.178 140.667 418.511C141.2 417.711 139.6 417.178 136.8 417.178C134.267 417.178 131.333 416.378 130.4 415.311C128 413.045 116.667 413.178 113.067 415.711Z" fill="black"/>
<path d="M117.333 429.311C117.333 430.778 121.6 431.978 124.133 431.178C128.267 429.845 127.067 428.378 122 428.378C119.467 428.378 117.333 428.778 117.333 429.311Z" fill="black"/>
<path d="M92.6667 336.245C90.6667 341.311 93.8667 345.045 96.5333 340.911C97.6 339.045 97.4667 338.111 95.7333 336.245C93.6 334.245 93.3333 334.245 92.6667 336.245Z" fill="black"/>
<path d="M89.3333 263.045C89.3333 263.978 88 265.845 86.4 266.911C83.8667 268.645 83.7333 269.045 85.6 269.045C86.8 269.178 88.8 268.245 89.8667 267.045C92.2667 264.778 92.6667 261.178 90.6667 261.178C90 261.178 89.3333 261.978 89.3333 263.045Z" fill="black"/>
<path d="M98.6667 269.845C98.6667 273.711 92.4 278.511 87.3333 278.511C84.8 278.511 82.6667 279.178 82.6667 279.978C82.6667 281.045 84.5333 281.311 88.4 280.778C92.4 280.245 95.0667 278.911 97.7333 275.845C101.333 271.845 102.533 267.845 100 267.845C99.3333 267.845 98.6667 268.778 98.6667 269.845Z" fill="black"/>
<path d="M104 275.711C104 278.378 102.533 281.178 99.4667 284.378C95.6 288.511 94.1333 289.178 88.8 289.178C85.4667 289.178 82.6667 289.711 82.6667 290.511C82.6667 292.511 91.7333 292.111 96.5333 289.845C98.9333 288.645 102.133 285.445 103.733 282.645C106.8 277.178 107.6 271.845 105.333 271.845C104.667 271.845 104 273.578 104 275.711Z" fill="black"/>
<path d="M334.167 75.3447L322.167 82.3447L327.167 86.3447L335.167 93.3447L341.167 104.845H344.167L349.667 93.3447L358.667 86.3447L365.667 83.3447L357.167 79.3447L349.667 70.3447L342.667 52.3447L340.667 62.8447L334.167 75.3447Z" fill="#AD3A37"/>
<path d="M340.8 54.1114C338.933 69.8447 331.2 79.8448 320 80.9114C312.667 81.5781 310.667 84.6448 317.467 84.9114C328.533 85.1781 341.333 99.4448 341.333 111.445C341.333 119.045 343.467 118.778 344.667 111.178C346.933 95.1781 354.133 87.0447 368 84.6447C369.867 84.2447 371.6 83.9781 372 83.8447C372.4 83.7114 369.733 82.7781 366.267 81.7114C362.4 80.5114 357.867 77.7114 354.8 74.6447C349.333 69.1781 344 57.1781 344 50.5114C344 43.5781 341.733 46.2447 340.8 54.1114ZM356.533 79.8447L361.6 83.1781L357.6 84.7781C353.067 86.6447 347.867 92.7781 344.8 99.8448C343.733 102.378 342.8 103.845 342.667 103.045C342.667 99.9781 334.267 89.1781 329.867 86.3781L325.2 83.5781L329.067 81.1781C334 78.1114 339.2 71.4448 341.333 65.0448L343.067 60.3781L347.2 68.3781C350 73.8447 353.067 77.5781 356.533 79.8447Z" fill="black"/>
<path d="M27.1667 306.845L40.1667 317.345L48.1667 310.345L56.6667 301.345L60.1667 294.845L62.1667 288.845L61.6667 279.845L58.1667 274.845L53.1667 271.845H46.6667L38.6667 276.845L32.1667 271.845H24.6667L18.6667 274.845L15.6667 279.845L14.6667 284.845L17.6667 294.345L27.1667 306.845Z" fill="#A63531"/>
<path d="M17.5152 273.684C12.1818 279.151 11.2485 285.684 14.7152 293.017C17.6485 299.151 36.5818 319.284 39.3818 319.284C42.7152 319.284 56.3152 303.817 60.4485 295.684C63.6485 289.017 64.3152 286.217 63.7818 282.351C62.0485 271.817 49.1152 266.084 42.0485 272.751L38.9818 275.551L35.3818 272.751C30.0485 268.484 22.3152 269.017 17.5152 273.684ZM34.1818 275.551L37.9152 278.484L42.9818 275.551C49.5152 271.817 52.4485 271.817 57.1152 275.817C61.5152 279.684 61.9152 286.484 58.1818 294.617C55.2485 300.484 42.0485 315.284 39.5152 315.284C37.3818 315.284 24.0485 301.951 19.2485 294.884C14.1818 287.551 14.1818 280.217 19.2485 275.817C23.9152 271.817 29.3818 271.684 34.1818 275.551Z" fill="black"/>
</g>
<defs>
<clipPath id="clip0_35_11">
<rect width="372" height="473" fill="white"/>
</clipPath>
</defs>
</svg>
